<svg xmlns="http://www.w3.org/2000/svg" width="40" height="40" viewBox="0 0 40 40">
  <g id="Grupo_3168" data-name="Grupo 3168" transform="translate(-99 -1463)">
    <g id="Grupo_2549" data-name="Grupo 2549" transform="translate(99 1463)">
      <g id="Elipse_134" data-name="Elipse 134" fill="none" stroke="#009fdf" stroke-width="2" opacity="0.995">
        <circle cx="20" cy="20" r="20" stroke="none"/>
        <circle cx="20" cy="20" r="19" fill="none"/>
      </g>
      <path id="Trazado_1155" data-name="Trazado 1155" d="M21.139,3.059v17.1a1.5,1.5,0,0,1-.985.985H1.985A1.5,1.5,0,0,1,1,20.154V1.985A1.542,1.542,0,0,1,1.985,1h17.1ZM18.66,20.665c.009-.161.018-.313.018-.456V10.362c0-.806-.242-1.038-1.038-1.038H4.482c-.841,0-1.065.224-1.065,1.056v9.846c0,.143.009.286.018.448C8.527,20.665,13.585,20.665,18.66,20.665Zm.465-.027c1.056.152,1.584.036,1.575-1.253-.036-4.636-.018-9.273-.018-13.909a5.751,5.751,0,0,0-.072-2.121c-.26-.627-.976-1.056-1.468-1.593a.812.812,0,0,0-.931-.251v.465c0,1.047.009,2.085-.009,3.133a1.188,1.188,0,0,1-1.3,1.271c-2.211.009-4.413.009-6.623,0A1.212,1.212,0,0,1,8.948,5.046c-.009-1.029,0-2.059,0-3.088v-.5H2.531c-.841,0-1.074.224-1.074,1.083V19.626a2.392,2.392,0,0,0,.009.358.726.726,0,0,0,.618.68,5.938,5.938,0,0,0,.9.009V10.416c0-1.119.43-1.548,1.531-1.548H17.523c1.226,0,1.611.385,1.611,1.593v9.622C19.125,20.262,19.125,20.441,19.125,20.638ZM9.414,1.474c0,1.262-.009,2.47,0,3.67.009.51.322.77.886.77h6.579c.609,0,.877-.26.9-.868.018-.644,0-1.28.009-1.924V1.465C14.963,1.474,12.215,1.474,9.414,1.474Z" transform="translate(9.064 9.064)" fill="none" stroke="#009fdf" stroke-miterlimit="10" stroke-width="1"/>
      <path id="Trazado_1156" data-name="Trazado 1156" d="M44.09,105.9H28.119c-.009-.169-.019-.319-.019-.47V95.1c0-.864.244-1.1,1.118-1.1H43.029c.836,0,1.09.244,1.09,1.09v10.335C44.119,105.575,44.1,105.725,44.09,105.9ZM30.355,97.326H41.883v-.413H30.355ZM30.345,99.7H41.911c-.009-.16-.019-.291-.028-.413H30.345Zm.009,2.151H41.92c-.009-.16-.019-.291-.028-.413H30.364C30.355,101.582,30.355,101.7,30.355,101.854Z" transform="translate(-15.989 -76.319)" fill="none"/>
      <path id="Trazado_1157" data-name="Trazado 1157" d="M24.533,26.234V15.551c0-1.278-.4-1.672-1.691-1.672H9.181c-1.156,0-1.607.451-1.607,1.625V26.271a6.233,6.233,0,0,1-.94-.009.772.772,0,0,1-.648-.714,2.511,2.511,0,0,1-.009-.376V7.237c0-.893.244-1.137,1.146-1.137H13.86v.526c0,1.08-.009,2.161,0,3.241a1.276,1.276,0,0,0,1.4,1.4c2.321.009,4.632.009,6.952,0a1.247,1.247,0,0,0,1.362-1.334c.019-1.1.009-2.189.009-3.288V6.156a.846.846,0,0,1,.977.263c.517.564,1.259,1.015,1.541,1.672a6.037,6.037,0,0,1,.075,2.227c0,4.867-.019,9.733.019,14.6C26.2,26.262,25.641,26.393,24.533,26.234Z" transform="translate(4.044 3.937)" fill="none"/>
      <path id="Trazado_1158" data-name="Trazado 1158" d="M94.96,6.3h8.784V8.038c0,.676.009,1.343-.009,2.02-.019.639-.3.911-.94.911H95.89c-.6,0-.93-.272-.93-.808C94.95,8.893,94.96,7.625,94.96,6.3Zm7.976.827H102v2.978h.94Z" transform="translate(-76.926 4.728)" fill="none"/>
      <path id="Trazado_1159" data-name="Trazado 1159" d="M52.1,125.413V125H63.628v.413Z" transform="translate(-37.732 -103.922)" fill="none" stroke="#009fdf" stroke-miterlimit="10" stroke-width="1"/>
      <path id="Trazado_1160" data-name="Trazado 1160" d="M52,150.713V150.3H63.537c.009.132.019.263.028.413Z" transform="translate(-37.643 -127.112)" fill="none" stroke="#009fdf" stroke-miterlimit="10" stroke-width="1"/>
      <path id="Trazado_1161" data-name="Trazado 1161" d="M52.1,173.613V173.2H63.628c.009.132.019.254.028.413Z" transform="translate(-37.734 -148.101)" fill="none" stroke="#009fdf" stroke-miterlimit="10" stroke-width="1"/>
      <path id="Trazado_1162" data-name="Trazado 1162" d="M170.839,15.1v2.978h-.94V15.1Z" transform="translate(-145.114 -3.281)" fill="none"/>
    </g>
  </g>
</svg>
