<svg id="Capa_1" data-name="Capa 1" xmlns="http://www.w3.org/2000/svg" viewBox="0 0 42 43"><defs><style>.cls-1{fill:#2bafe3;}.cls-2,.cls-3{fill:#fff;}.cls-3{font-size:12px;stroke:#fff;stroke-miterlimit:10;stroke-width:0.5px;font-family:MyriadPro-Regular, Myriad Pro;}</style></defs><title>btn_agregarpersona</title><g id="JADVzE.tif"><ellipse class="cls-1" cx="21" cy="21.5" rx="21" ry="21.5"/><path class="cls-2" d="M47.54,62a17.29,17.29,0,0,1-11.61-4.45.86.86,0,0,1-.25-1.24c2.58-4.81,6.55-7.45,12-7.37,5.32.09,9.13,2.74,11.59,7.41a.82.82,0,0,1-.23,1.17A17.21,17.21,0,0,1,47.54,62Z" transform="translate(-26 -23)"/><path class="cls-2" d="M53,40.2a6.33,6.33,0,1,1-6.28-6.36A6.3,6.3,0,0,1,53,40.2Z" transform="translate(-26 -23)"/></g><text class="cls-3" transform="translate(25.11 12.25)">+</text></svg>