<svg xmlns="http://www.w3.org/2000/svg" width="40" height="40" viewBox="0 0 40 40">
  <g id="Grupo_3167" data-name="Grupo 3167" transform="translate(-188 -1463)">
    <circle id="Elipse_134" data-name="Elipse 134" cx="20" cy="20" r="20" transform="translate(188 1463)" fill="#3fb030" opacity="0.995"/>
    <g id="Grupo_3124" data-name="Grupo 3124" transform="translate(197.582 1472.582)">
      <path id="Trazado_3387" data-name="Trazado 3387" d="M22.139,3.161V21.105a1.578,1.578,0,0,1-1.033,1.033H2.033A1.578,1.578,0,0,1,1,21.105V2.033A1.618,1.618,0,0,1,2.033,1H19.978Zm-2.6,18.48c.009-.169.019-.329.019-.479V10.827c0-.846-.254-1.09-1.09-1.09H4.655c-.883,0-1.118.235-1.118,1.109V21.181c0,.15.009.3.019.47C8.9,21.641,14.209,21.641,19.536,21.641Zm.489-.028c1.109.16,1.663.038,1.654-1.315-.038-4.867-.019-9.733-.019-14.6a6.037,6.037,0,0,0-.075-2.227c-.272-.658-1.024-1.109-1.541-1.672a.852.852,0,0,0-.977-.263v.489c0,1.1.009,2.189-.009,3.288A1.247,1.247,0,0,1,17.7,6.646c-2.321.009-4.632.009-6.952,0a1.272,1.272,0,0,1-1.4-1.4c-.009-1.08,0-2.161,0-3.241V1.479H2.607c-.883,0-1.127.235-1.127,1.137V20.551a2.511,2.511,0,0,0,.009.376.762.762,0,0,0,.648.714,6.233,6.233,0,0,0,.94.009V10.884c0-1.174.451-1.625,1.607-1.625h13.66c1.287,0,1.691.4,1.691,1.672v10.1C20.025,21.218,20.025,21.406,20.025,21.613ZM9.831,1.5c0,1.325-.009,2.593,0,3.852.009.536.338.808.93.808h6.905c.639,0,.921-.272.94-.911.019-.676,0-1.343.009-2.02V1.489C15.656,1.5,12.772,1.5,9.831,1.5Z" transform="translate(-1 -1)" fill="none" stroke="#fff" stroke-miterlimit="10" stroke-width="1"/>
      <path id="Trazado_3388" data-name="Trazado 3388" d="M52.1,125.413V125H63.628v.413Z" transform="translate(-47.299 -113.35)" fill="none" stroke="#fff" stroke-miterlimit="10" stroke-width="1"/>
      <path id="Trazado_3389" data-name="Trazado 3389" d="M52,150.713V150.3H63.537c.009.132.019.263.028.413Z" transform="translate(-47.208 -136.273)" fill="none" stroke="#fff" stroke-miterlimit="10" stroke-width="1"/>
      <path id="Trazado_3390" data-name="Trazado 3390" d="M52.1,173.613V173.2H63.628c.009.132.019.254.028.413Z" transform="translate(-47.299 -157.022)" fill="none" stroke="#fff" stroke-miterlimit="10" stroke-width="1"/>
    </g>
  </g>
</svg>
