<svg xmlns="http://www.w3.org/2000/svg" xmlns:xlink="http://www.w3.org/1999/xlink" width="49" height="49" viewBox="0 0 49 49">
  <defs>
    <filter id="Trazado_1628" x="0" y="0" width="49" height="49" filterUnits="userSpaceOnUse">
      <feOffset dy="1" input="SourceAlpha"/>
      <feGaussianBlur stdDeviation="1.5" result="blur"/>
      <feFlood flood-opacity="0.161"/>
      <feComposite operator="in" in2="blur"/>
      <feComposite in="SourceGraphic"/>
    </filter>
  </defs>
  <g id="Grupo_3354" data-name="Grupo 3354" transform="translate(-561.5 -346.5)">
    <g transform="matrix(1, 0, 0, 1, 561.5, 346.5)" filter="url(#Trazado_1628)">
      <g id="Trazado_1628-2" data-name="Trazado 1628" transform="translate(4.5 3.5)" fill="#3fb030" opacity="0.995">
        <path d="M 20 39.5 C 17.36730003356934 39.5 14.8136100769043 38.98448944091797 12.40987968444824 37.96780014038086 C 10.08788967132568 36.98567962646484 8.002429962158203 35.57958984375 6.211420059204102 33.78858184814453 C 4.42041015625 31.99757957458496 3.014319896697998 29.9121208190918 2.03220009803772 27.59012985229492 C 1.015509963035583 25.1863899230957 0.5 22.63269996643066 0.5 20 C 0.5 17.36730003356934 1.015509963035583 14.8136100769043 2.03220009803772 12.40987968444824 C 3.014319896697998 10.08788967132568 4.42041015625 8.002429962158203 6.211420059204102 6.211420059204102 C 8.002429962158203 4.42041015625 10.08788967132568 3.014319896697998 12.40987968444824 2.03220009803772 C 14.8136100769043 1.015509963035583 17.36730003356934 0.5 20 0.5 C 23.4349193572998 0.5 26.80600929260254 1.410640001296997 29.74884033203125 3.133480072021484 C 32.6307487487793 4.820650100708008 35.09934997558594 7.279319763183594 36.88777160644531 10.24367046356201 C 38.57242965698242 13.02668952941895 39.5 16.49132919311523 39.5 20 C 39.5 22.63269996643066 38.98448944091797 25.1863899230957 37.96780014038086 27.59012985229492 C 36.98567962646484 29.9121208190918 35.57958984375 31.99757957458496 33.78858184814453 33.78858184814453 C 31.99757957458496 35.57958984375 29.9121208190918 36.98567962646484 27.59012985229492 37.96780014038086 C 25.1863899230957 38.98448944091797 22.63269996643066 39.5 20 39.5 Z" stroke="none"/>
        <path d="M 20 1 C 17.4345703125 1 14.94642066955566 1.502220153808594 12.60465049743652 2.492698669433594 C 10.34226036071777 3.449611663818359 8.310220718383789 4.819721221923828 6.564968109130859 6.564968109130859 C 4.819721221923828 8.310220718383789 3.449611663818359 10.34226036071777 2.492698669433594 12.60465049743652 C 1.502220153808594 14.94642066955566 1 17.4345703125 1 20 C 1 22.5654296875 1.502220153808594 25.05358123779297 2.492698669433594 27.39535140991211 C 3.449611663818359 29.65773963928223 4.819721221923828 31.68978118896484 6.564968109130859 33.43502807617188 C 8.310220718383789 35.18027877807617 10.34226036071777 36.55038833618164 12.60465049743652 37.50730133056641 C 14.94642066955566 38.49777984619141 17.4345703125 39 20 39 C 22.5654296875 39 25.05358123779297 38.49777984619141 27.39535140991211 37.50730133056641 C 29.65773963928223 36.55038833618164 31.68978118896484 35.18027877807617 33.43502807617188 33.43502807617188 C 35.18027877807617 31.68978118896484 36.55038833618164 29.65773963928223 37.50730133056641 27.39535140991211 C 38.49777984619141 25.05358123779297 39 22.5654296875 39 20 C 39 16.58131980895996 38.09809112548828 13.20863914489746 36.45964813232422 10.50196075439453 C 34.71422958374023 7.608871459960938 32.30630874633789 5.210098266601562 29.49621963500977 3.564968109130859 C 26.62994956970215 1.886951446533203 23.34621047973633 1 20 1 M 20 0 C 27.26800918579102 0 33.63055038452148 3.8768310546875 37.31589126586914 9.985380172729492 C 38.95264053344727 12.68926048278809 40 16.22232055664062 40 20 C 40 31.04570007324219 31.04570007324219 40 20 40 C 8.954299926757812 40 0 31.04570007324219 0 20 C 0 8.954299926757812 8.954299926757812 0 20 0 Z" stroke="none" fill="#3fb030"/>
      </g>
    </g>
    <g id="vhxz67_2_" transform="translate(573 357)">
      <g id="Grupo_708" data-name="Grupo 708">
        <path id="Trazado_1164" data-name="Trazado 1164" d="M64.241,16.475l-.012-.012a1.419,1.419,0,0,1-1.236,1.02c-4.238,0-8.475-.012-12.725.012-.54,0-.684-.156-.672-.684.024-2.905.024-5.8,0-8.7,0-.552.156-.708.708-.708q6.3.036,12.6,0c.564,0,.708.192.708.72-.024,2.641-.012,5.282-.012,7.923v.648C63.88,16.608,64.061,16.548,64.241,16.475Zm-5.39-6.807a1.761,1.761,0,0,0-.492-.216c-.42-.036-.84-.012-1.26-.012H53.34c.084.3.144.516.216.744,1.369,0,2.689-.024,4.01.012a1.475,1.475,0,0,0,1.3-.552v.54h1.573c.276,0,.576.072.576-.384-.012-.42-.3-.372-.54-.348C59.919,9.5,59.391,9.585,58.851,9.669Zm-5.39,5.5c.132-.264.084-.432-.24-.444-.2-.012-.4.012-.6,0-.312-.024-.492.132-.384.42a.57.57,0,0,0,.492.276,3.189,3.189,0,0,0,.78-.276c.144.108.288.3.42.3,1.561-.048,3.133-.12,4.694-.18a1.817,1.817,0,0,1,.36.024c.492.06.972.132,1.465.18.252.024.54.06.552-.348.012-.456-.312-.384-.576-.384h-5.09C54.673,14.723,53.989,14.6,53.46,15.167Zm3.145-2.341c1.3,0,2.593.012,3.9-.012a.581.581,0,0,0,.468-.336c.1-.372-.192-.4-.48-.4-2.593,0-5.2,0-7.791.012a.607.607,0,0,0-.468.336c-.108.372.192.4.48.4s.586,0,1.193-.005C54.6,12.819,55.6,12.826,56.606,12.826Z" transform="translate(-43.807 -6.656)" fill="none"/>
        <path id="Trazado_1165" data-name="Trazado 1165" d="M21.82,11.02c-.18.06-.36.12-.636.216v-.648c0-2.641-.012-5.282.012-7.923,0-.528-.132-.72-.708-.72q-6.3.036-12.6,0c-.552,0-.72.156-.708.708.024,2.905.024,5.8,0,8.7,0,.516.144.684.672.684,4.238-.024,8.475-.012,12.725-.012a1.4,1.4,0,0,0,1.236-1.02c.96-.576,1.621-.06,2.257.624.456.5.948.972,1.441,1.441a4.733,4.733,0,0,1,1.489,3.6c-.012,1.417,0,2.845,0,4.262a1.889,1.889,0,0,1-2.053,2.041H22.66a14.159,14.159,0,0,0,2,4.046H3.633c.684-.936,1.309-1.777,1.921-2.6.192-.312.4-.252.6-.012-.156.528-.312,1.068-.48,1.609h17c-.312-.984-.6-1.933-.9-2.869l-.012.024a4.746,4.746,0,0,0,.828-.636,1.37,1.37,0,0,1,1.188-.54,10.013,10.013,0,0,0,1.2,0,.943.943,0,0,0,1.032-1c.012-1.621.048-3.241-.012-4.862A3.227,3.227,0,0,0,25.013,14q-.936-.972-1.909-1.909a1.737,1.737,0,0,0-.6-.372c-.384-.108-.7-.024-.648.48.048.456-.156.576-.588.576-4.706-.012-9.4-.012-14.105,0-.408,0-.624-.072-.624-.552,0-.5-.276-.66-.744-.468a1.8,1.8,0,0,0-.528.384c-.6.588-1.188,1.188-1.789,1.777A3.6,3.6,0,0,0,2.4,16.554v4.082c0,1.044,2.713,1.864,3.757,1.948l-.5.624-.245.332c-.192.624-2.221-.431-2.822-.695a1.769,1.769,0,0,1-1.176-1.657c-.024-1.7-.048-3.4.012-5.1A4.151,4.151,0,0,1,2.672,13.3c.66-.672,1.3-1.369,2-1.981A2.591,2.591,0,0,1,6,10.732c.528-.06.564-.3.564-.708V2.04c0-.828,0-.828.8-.828,4.6,0,9.208.012,13.805-.012.564,0,.744.156.7.708A5.956,5.956,0,0,1,21.6,4.381a.254.254,0,0,0,0,.228c.54,1.309.156,2.689.252,4.022C21.868,9.435,21.82,10.227,21.82,11.02Z" transform="translate(-1.386 -1.2)" fill="#fff" stroke="#fff" stroke-miterlimit="10" stroke-width="1"/>
        <path id="Trazado_1166" data-name="Trazado 1166" d="M31.836,160.786c-.2-.24-.408-.3-.6.012-.06-.1-.192-.216-.168-.3.1-.336.228-.66.36-1.032-.264-.06-.456-.108-.636-.156-.06-.288-.132-.576-.192-.864.012-.012.048-.06.072-.06,1.152-.06,1.152-.06,1.224-1.26.048-.912.048-.912.984-.912,4.742,0,9.472.012,14.213-.012.564,0,.72.228.792.7.072.492.18.972.216,1.465a1.038,1.038,0,0,1-.18.456c-.144.252-.312.492-.468.732l.012-.024A11.626,11.626,0,0,1,47,157.845c-.084-.528-.3-.66-.816-.66-4.2.024-8.391.012-12.593.012-.216,0-.432.024-.588.024-.276,1.068-.528,2.077-.8,3.061A1.682,1.682,0,0,1,31.836,160.786Z" transform="translate(-27.093 -137.593)" fill="#fff"/>
        <path id="Trazado_1167" data-name="Trazado 1167" d="M34.529,111.936c-.168-.5,0-.636.432-.636,5.558.012,11.1,0,16.662.024.168,0,.336.216.5.324-.18.108-.348.3-.528.3-3.361.012-6.711.012-10.072.012-2.221,0-4.454-.012-6.675-.012A2.618,2.618,0,0,0,34.529,111.936Z" transform="translate(-30.494 -98.083)" fill="#fff"/>
        <path id="Trazado_1168" data-name="Trazado 1168" d="M99.88,129.24c-.18,0-.384.06-.528-.012a3.054,3.054,0,0,1-.552-.42c.156-.18.288-.468.48-.516a2.3,2.3,0,0,1,1.068-.012.925.925,0,0,1,.612.492c.072.36-.264.48-.6.48-.156-.012-.312,0-.48-.012Z" transform="translate(-87.106 -112.974)" fill="#fff"/>
        <path id="Trazado_1169" data-name="Trazado 1169" d="M131.606,129.374a1.537,1.537,0,0,1-.528-.012c-.192-.072-.492-.252-.48-.36.024-.2.2-.528.372-.564a3.366,3.366,0,0,1,1.3,0c.18.036.3.348.456.54a3.072,3.072,0,0,1-.576.4A1.63,1.63,0,0,1,131.606,129.374Z" transform="translate(-115.086 -113.108)" fill="#fff"/>
        <path id="Trazado_1170" data-name="Trazado 1170" d="M67.12,128.344c.72.648,1.345.552,1.873-.444.12.3.276.5.24.66a.6.6,0,0,1-.42.372,4.35,4.35,0,0,1-1.248,0c-.2-.036-.372-.3-.564-.468A.565.565,0,0,1,67.12,128.344Z" transform="translate(-59.123 -112.69)" fill="#fff"/>
        <path id="Trazado_1171" data-name="Trazado 1171" d="M75.744,47.122h-3.9c-.288,0-.576-.012-.48-.4a.607.607,0,0,1,.468-.336c2.593-.024,5.2-.012,7.791-.012.288,0,.576.024.48.4a.635.635,0,0,1-.468.336C78.349,47.134,77.04,47.122,75.744,47.122Z" transform="translate(-62.945 -40.952)" fill="#fff"/>
        <path id="Trazado_1172" data-name="Trazado 1172" d="M81.8,68.766c.528-.564,1.224-.444,1.885-.444h5.09c.264,0,.588-.072.576.384-.012.408-.3.372-.552.348-.492-.048-.972-.12-1.465-.18-.12-.012-.24-.024-.36-.024-1.561.06-3.133.144-4.694.18-.144,0-.288-.192-.42-.3A.385.385,0,0,1,81.8,68.766Z" transform="translate(-72.147 -60.255)" fill="#fff"/>
        <path id="Trazado_1173" data-name="Trazado 1173" d="M86.222,24.547a1.476,1.476,0,0,1-1.3.552c-1.321-.036-2.641-.012-4.01-.012-.06-.228-.12-.444-.216-.744h3.757c.42,0,.84-.024,1.26.012a1.761,1.761,0,0,1,.492.216C86.222,24.571,86.222,24.547,86.222,24.547Z" transform="translate(-71.179 -21.557)" fill="#fff"/>
        <path id="Trazado_1174" data-name="Trazado 1174" d="M126.7,24.582v.024c.54-.072,1.068-.168,1.609-.216.252-.024.54-.072.54.348.012.456-.3.384-.576.384H126.7Z" transform="translate(-111.657 -21.593)" fill="#fff"/>
        <path id="Trazado_1175" data-name="Trazado 1175" d="M72.594,68.839l.048-.024a3.375,3.375,0,0,1-.78.276.609.609,0,0,1-.492-.276c-.108-.276.072-.432.384-.42.2.012.4,0,.6,0C72.666,68.419,72.726,68.587,72.594,68.839Z" transform="translate(-62.94 -60.328)" fill="#fff"/>
        <path id="Trazado_1176" data-name="Trazado 1176" d="M37.38,168.089a1.68,1.68,0,0,0,.348-.492c.276-1,.528-1.993.8-3.061.156-.012.372-.024.588-.024,4.2,0,8.391.012,12.593-.012.516,0,.732.132.816.66A14.636,14.636,0,0,0,53,166.841c.3.948.588,1.885.9,2.869h-17C37.068,169.158,37.224,168.63,37.38,168.089Z" transform="translate(-32.637 -144.897)" fill="none" stroke="#fff" stroke-width="1"/>
        <path id="Trazado_1177" data-name="Trazado 1177" d="M68,127.311a1.244,1.244,0,0,1,2.041-.6S69.681,128.271,68,127.311Z" transform="translate(-60.003 -111.368)" fill="#fff"/>
      </g>
    </g>
  </g>
</svg>
