<svg xmlns="http://www.w3.org/2000/svg" width="24" height="23.721" viewBox="0 0 24 23.721">
  <g id="Grupo_3428" data-name="Grupo 3428" transform="translate(-932.985 -491.694)">
    <path id="Trazado_1209" data-name="Trazado 1209" d="M950.505,515.055h-11.04a1.886,1.886,0,0,1-1.841-1.917V493.972a1.886,1.886,0,0,1,1.841-1.917h11.04a1.885,1.885,0,0,1,1.84,1.917v19.166A1.885,1.885,0,0,1,950.505,515.055Zm.919-4.887h-12.88v2.97a.893.893,0,0,0,.815.958.913.913,0,0,0,.1,0H950.5a.881.881,0,0,0,.92-.848.675.675,0,0,0,0-.11Zm-6.532,2.97a.935.935,0,0,1-1.017-.857.955.955,0,0,1,.823-1.06.936.936,0,0,1,1.017.858c0,.033,0,.067,0,.1a.874.874,0,0,1-.775.955A.468.468,0,0,1,944.892,513.138Zm6.532-16.387h-12.88V509.21h12.88Zm-.919-3.738h-11.04a.883.883,0,0,0-.92.849,1.015,1.015,0,0,0,0,.109v1.822h12.879v-1.821a.892.892,0,0,0-.813-.959A.931.931,0,0,0,950.505,493.013Zm-4.692,1.725H944.34a.246.246,0,0,1-.276-.216.277.277,0,0,1,0-.071.253.253,0,0,1,.207-.288.267.267,0,0,1,.069,0H945.9a.246.246,0,0,1,.276.216.216.216,0,0,1,0,.072C946.18,494.643,946,494.738,945.813,494.738Z" fill="#009fdf" stroke="#009fdf" stroke-miterlimit="10" stroke-width="0.721"/>
    <rect id="Rectángulo_3520" data-name="Rectángulo 3520" width="24" height="23.5" rx="3.038" transform="translate(932.985 491.805)" fill="none"/>
  </g>
</svg>
