<svg xmlns="http://www.w3.org/2000/svg" width="25.633" height="23.06" viewBox="0 0 25.633 23.06"><g transform="translate(-584.821 -664.005)"><circle cx="1.095" cy="1.095" r="1.095" transform="translate(602.577 667.924)" fill="#fff"/><path d="M591.1,672.027h7.722a5.011,5.011,0,1,0,0-6.017h-7.731l-2.6,2.536v1l2.608,2.478Zm-.237-2.992,1.046-1.019h8.028l.29-.5a3.008,3.008,0,1,1,0,3.007l-.29-.5H596.1l-1.451-1.379-1.31,1.379H591.9Z" fill="#fff"/><path d="M595.559,677.647h7.062a9.842,9.842,0,0,1,5.631,1.845l2.2,1.576V678.6l-1.036-.741a11.835,11.835,0,0,0-6.774-2.219h-7.086a2.811,2.811,0,0,0-2.473,1.477l-3.188-3.128a3.008,3.008,0,0,0-4.212,4.294l7.442,7.3a5.137,5.137,0,0,0,3.62,1.479h13.709v-2.006H596.746a3.143,3.143,0,0,1-2.215-.9l-7.442-7.3a1,1,0,0,1,.694-1.717h.01a1,1,0,0,1,.7.287l4.812,4.723.009-.009a2.812,2.812,0,0,0,.663.634,3.835,3.835,0,0,0,1.352.609c.309.057,5.643.623,7.922.864l.211-1.994c-2.925-.309-7.387-.786-7.776-.843a2.033,2.033,0,0,1-.578-.293.8.8,0,0,1,.451-1.466Z" fill="#fff"/></g></svg>