<svg xmlns="http://www.w3.org/2000/svg" viewBox="0 0 14.856 9.018">
  <defs>
    <style>
      .cls-1 {
        fill: #009fdf;
      }
    </style>
  </defs>
  <g id="Group_389" data-name="Group 389" transform="translate(0 9.018) rotate(-90)">
    <path id="Path_449" data-name="Path 449" class="cls-1" d="M9.018,7.534A4.857,4.857,0,0,1,8.41,8.4c-2.135,2.034-4.292,4.042-6.434,6.07A1.176,1.176,0,0,1,.83,14.82,1.012,1.012,0,0,1,.314,13.1c.332-.346.693-.665,1.039-.991C3,10.559,4.655,9.01,6.324,7.434c-.092-.093-.17-.18-.262-.259C4.182,5.4,2.287,3.618.4,1.843A1.022,1.022,0,0,1,.088.633,1.131,1.131,0,0,1,1.9.327C3.1,1.437,4.288,2.568,5.475,3.684c.983.924,1.973,1.842,2.941,2.779a5.837,5.837,0,0,1,.6.864Z" transform="translate(0 0)"/>
  </g>
</svg>
