<svg xmlns="http://www.w3.org/2000/svg" width="23.495" height="23.651" viewBox="0 0 23.495 23.651"><path d="M530.025,677.875a1.876,1.876,0,0,0-1.874-1.87h-.031a2.993,2.993,0,0,0-5.187,0h-.03v-3.463a1.883,1.883,0,0,0-1.22-1.756l-1.783-.668V669.6a3,3,0,1,0-3,0v.521l-1.783.669a1.884,1.884,0,0,0-1.211,1.755v3.463h-.031a2.993,2.993,0,0,0-5.187,0h-.031a1.876,1.876,0,0,0-1.874,1.87v3.749a1.865,1.865,0,0,1,0,2.164v3.084a.375.375,0,0,0,.375.375h8.247a.375.375,0,0,0,.378-.372v-3.087a1.864,1.864,0,0,0-.023-.289h5.294a1.864,1.864,0,0,0-.023.289v3.084a.375.375,0,0,0,.375.375h8.247a.375.375,0,0,0,.375-.375v-3.084a1.856,1.856,0,0,1,0-2.164Zm-.75,0v3.749a1.119,1.119,0,0,1-.156.564,1.873,1.873,0,0,0-.31-.155l-1.783-.669v-1.27a2.974,2.974,0,0,0,1.411-3.3,1.122,1.122,0,0,1,.838,1.083Zm-3.749,1.874a2.248,2.248,0,0,1-1.958-1.144,5.023,5.023,0,0,0,3.917,0,2.247,2.247,0,0,1-1.958,1.145Zm-.75.651a2.891,2.891,0,0,0,1.5,0v.848h-1.5Zm.75-5.15a2.252,2.252,0,0,1,2.25,2.254h0a1.017,1.017,0,0,1-.007.147l-.279.139a4.46,4.46,0,0,1-3.926,0l-.279-.139c0-.049-.007-.1-.007-.147a2.253,2.253,0,0,1,2.249-2.254Zm-3.373-2.708v3.463h-3.27l.633-2.533a.366.366,0,0,0-.008-.21l-.3-.9.211-.211a.374.374,0,0,0,.091-.383l-.251-.763.318-.212,1.846.692a1.13,1.13,0,0,1,.73,1.053Zm-3.957-1.1a.375.375,0,0,0,.416,0h0l.112.337-.321.321-.32-.324.112-.337Zm0,1.492a.333.333,0,0,0,.412,0l.154.461-.36,1.438-.36-1.438Zm.206-8.176a2.249,2.249,0,0,1,2.027,1.28l-1.533-.511a.383.383,0,0,0-.25,0l-2.417.906a2.252,2.252,0,0,1,2.175-1.678Zm-2.234,2.5,2.615-.981,1.862.621c0,.035.005.07.005.106a2.249,2.249,0,0,1-4.483.254Zm2.236,2.747a2.973,2.973,0,0,0,.75-.1v.273l-.75.5-.75-.5v-.273A2.973,2.973,0,0,0,518.4,670.005Zm-3.749,2.537a1.13,1.13,0,0,1,.728-1.053l1.846-.692.32.208-.25.751a.374.374,0,0,0,.091.383l.211.211-.3.9a.384.384,0,0,0-.008.21l.631,2.545h-3.269Zm-2.624,8.707h-1.5v-.844a2.891,2.891,0,0,0,1.5,0Zm-.75-1.5a2.248,2.248,0,0,1-1.958-1.144,5.023,5.023,0,0,0,3.917,0,2.248,2.248,0,0,1-1.957,1.145Zm0-4.5a2.252,2.252,0,0,1,2.25,2.254v0a1.017,1.017,0,0,1-.007.147l-.279.139a4.46,4.46,0,0,1-3.926,0l-.279-.139c0-.049-.007-.1-.007-.147a2.252,2.252,0,0,1,2.25-2.254h0Zm-3.748,2.626a1.124,1.124,0,0,1,.838-1.083,2.974,2.974,0,0,0,1.412,3.3v1.27l-1.783.668a1.866,1.866,0,0,0-.31.154,1.1,1.1,0,0,1-.157-.563Zm7.5,8.622h-7.5v-2.71a1.131,1.131,0,0,1,.73-1.053l1.962-.736h2.113l1.962.736a1.13,1.13,0,0,1,.73,1.053Zm.431-3.749a1.874,1.874,0,0,0-.9-.716l-1.781-.668v-1.27a2.975,2.975,0,0,0,1.4-3.343h8.444a2.975,2.975,0,0,0,1.4,3.343v1.27l-1.783.669a1.867,1.867,0,0,0-.9.716h-5.88Zm13.814,3.749h-7.5v-2.71a1.131,1.131,0,0,1,.73-1.053L524.47,682h2.113l1.962.736a1.13,1.13,0,0,1,.73,1.053Z" transform="translate(-506.658 -663.721)" fill="#fff" stroke="#fff" stroke-miterlimit="10" stroke-width="0.25"/></svg>