<svg xmlns="http://www.w3.org/2000/svg" width="24.234" height="18.305" viewBox="0 0 24.234 18.305">
  <g id="mail" transform="translate(-932.855 -471.208)">
    <g id="Grupo_3423" data-name="Grupo 3423">
      <path id="Trazado_1828" data-name="Trazado 1828" d="M954.862,471.325H935.081a2.1,2.1,0,0,0-2.109,2.085v13.9a2.1,2.1,0,0,0,2.109,2.086h19.781a2.1,2.1,0,0,0,2.11-2.086v-13.9A2.1,2.1,0,0,0,954.862,471.325Zm-.292,1.389-9.554,9.445-9.637-9.445Zm-20.193,14.309V473.691l6.772,6.638Zm.995.983,6.777-6.7,2.376,2.327a.709.709,0,0,0,.992,0l2.315-2.289,6.74,6.663Zm20.193-.983-6.74-6.663,6.74-6.662Z" fill="#009fdf" stroke="#009fdf" stroke-miterlimit="10" stroke-width="0.234"/>
    </g>
  </g>
</svg>
