<svg id="Grupo_2675" data-name="Grupo 2675" xmlns="http://www.w3.org/2000/svg" width="47.23" height="44.737" viewBox="0 0 47.23 44.737">
  <g id="Elipse_225" data-name="Elipse 225" fill="#009fdf" stroke="#009fdf" stroke-width="2" opacity="0.995">
    <ellipse cx="23.615" cy="22.369" rx="23.615" ry="22.369" stroke="none"/>
    <ellipse cx="23.615" cy="22.369" rx="22.615" ry="21.369" fill="none"/>
  </g>
  <g id="Grupo_2080" data-name="Grupo 2080" transform="translate(12.23 12.192)">
    <path id="Trazado_2404" data-name="Trazado 2404" d="M866.36,1456.9c-1.063.257-1.555-.337-2.083-.853-.18.931-.2.942-1.128.67-.73-.214-1.458-.432-2.186-.65-1.283-.384-1.547-.708-1.693-2.074a.61.61,0,0,0-.183-.437l-.182,1.71a5.112,5.112,0,0,1-.892-.16c-2.337-.841-4.667-1.7-7-2.554-.857-.312-.872-1.056-1.012-1.8l-.293,1.283c-.064.019-.113.052-.154.043-1.527-.328-1.523-.327-.955-1.754a22.863,22.863,0,0,1,3.487-5.947c1.164-1.44,2.553-2.293,4.506-1.686,2.852.887,5.713,1.742,8.569,2.617a2.509,2.509,0,0,1,.418.225L864,1448.966l.093.04c.574-.931,1.13-1.874,1.737-2.783.141-.211.46-.3.7-.451a2.728,2.728,0,0,1-.01.823,21.937,21.937,0,0,0-1.409,6.352A5,5,0,0,0,866.36,1456.9Z" transform="translate(-848.249 -1436.172)" fill="#fff"/>
    <path id="Trazado_2405" data-name="Trazado 2405" d="M902.464,1406.269c1.027.329,1.911.622,2.8.9,1.147.353,1.152.61.421,1.531a2.539,2.539,0,0,1-3.256.869c-3.45-1.18-6.964-2.173-10.45-3.247-.281-.086-.548-.219-.882-.356.129-.219.178-.424.3-.5.834-.475,1.667-.958,2.539-1.355a1.651,1.651,0,0,1,1.029.006c1.025.281,2.048.583,3.045.948a1.537,1.537,0,0,0,1.9-.469c.668-.795,1.3-1.62,2.021-2.369a3.579,3.579,0,0,1,3.345-1.209c.56.1,1.036.306,1.131.945a1.6,1.6,0,0,1-.569,1.63q-1.382,1.071-2.757,2.15C902.911,1405.878,902.75,1406.025,902.464,1406.269Z" transform="translate(-884.573 -1400.959)" fill="#fff"/>
  </g>
</svg>
