<svg xmlns="http://www.w3.org/2000/svg" viewBox="0 0 19.026 11.549">
  <defs>
    <style>
      .cls-1 {
        fill: #707372;
      }
    </style>
  </defs>
  <g id="Group_389" data-name="Group 389" transform="translate(580.026 -1510) rotate(90)">
    <path id="Path_449" data-name="Path 449" class="cls-1" d="M11.509,9.628a6.22,6.22,0,0,1-.779,1.107C8,13.341,5.234,15.912,2.49,18.509a1.506,1.506,0,0,1-1.467.451,1.3,1.3,0,0,1-.661-2.205c.426-.443.887-.851,1.331-1.269C3.8,13.5,5.922,11.519,8.059,9.5c-.118-.119-.217-.23-.335-.332C5.315,6.9,2.889,4.614.471,2.34a1.309,1.309,0,0,1-.4-1.55A1.449,1.449,0,0,1,2.4.4C3.93,1.821,5.451,3.268,6.972,4.7,8.231,5.882,9.5,7.057,10.739,8.258a7.475,7.475,0,0,1,.77,1.107Z" transform="translate(1510.04 561.02)"/>
  </g>
</svg>
