<?xml version="1.0" encoding="utf-8"?>
<!-- Generator: Adobe Illustrator 22.1.0, SVG Export Plug-In . SVG Version: 6.00 Build 0)  -->
<svg version="1.1" id="Capa_1" xmlns="http://www.w3.org/2000/svg" xmlns:xlink="http://www.w3.org/1999/xlink" x="0px" y="0px"
	 viewBox="0 0 14.9 9" style="enable-background:new 0 0 14.9 9;" xml:space="preserve">
<style type="text/css">
	.st0{fill:#009FDF;}
</style>
<g id="Group_389" transform="translate(14.857 0) rotate(90)">
	<path id="Path_449" class="st0" d="M9,7.5C8.8,7.8,8.6,8.1,8.4,8.4c-2.1,2-4.3,4-6.4,6.1c-0.3,0.3-0.7,0.5-1.1,0.4
		c-0.5-0.1-0.9-0.6-0.8-1.2c0-0.2,0.1-0.4,0.3-0.5c0.3-0.3,0.7-0.7,1-1C3,10.6,4.7,9,6.3,7.4C6.2,7.3,6.2,7.3,6.1,7.2
		C4.2,5.4,2.3,3.6,0.4,1.8C0,1.6-0.1,1.1,0.1,0.6c0.3-0.6,1-0.8,1.5-0.5c0.1,0.1,0.2,0.1,0.3,0.2c1.2,1.1,2.4,2.2,3.6,3.4
		c1,0.9,2,1.8,2.9,2.8C8.6,6.7,8.8,7,9,7.3L9,7.5z"/>
</g>
</svg>
