<svg id="Componente_13_2" data-name="Componente 13 – 2" xmlns="http://www.w3.org/2000/svg" width="42" height="42" viewBox="0 0 42 42">
  <circle id="Elipse_230" data-name="Elipse 230" cx="21" cy="21" r="21" fill="#009fdf"/>
  <g id="Wi4JBC_2_" transform="translate(-97.001 77)">
    <g id="Grupo_2688" data-name="Grupo 2688" transform="translate(107.001 -68)">
      <path id="Trazado_2460" data-name="Trazado 2460" d="M12.261,5.064c0-1.1.019-2.123-.006-3.149a1.738,1.738,0,0,1,.84-1.74,1.5,1.5,0,0,1,1.794.351Q20.323,4.94,25.764,9.342a1.734,1.734,0,0,1-.036,3.031c-3.6,2.877-7.211,5.738-10.806,8.621a1.568,1.568,0,0,1-1.794.388,1.752,1.752,0,0,1-.872-1.811c.027-1.232.007-2.465.007-3.705-.539,0-.961-.007-1.383,0a4.285,4.285,0,0,0-.587.074,8.846,8.846,0,0,0-7.387,6.1,1.4,1.4,0,0,1-1.668,1.066A1.493,1.493,0,0,1,.027,21.484a36.552,36.552,0,0,1,.045-3.72C.462,13.9,1.774,10.5,4.7,8A13.522,13.522,0,0,1,12.261,5.064Z" transform="translate(-0.001 0)" fill="none" stroke="#fff" stroke-width="0.1"/>
      <path id="Trazado_2461" data-name="Trazado 2461" d="M12.261,5.073A13.522,13.522,0,0,0,4.7,8.01c-2.925,2.5-4.237,5.9-4.628,9.764a36.552,36.552,0,0,0-.045,3.72,1.492,1.492,0,0,0,1.211,1.624,1.406,1.406,0,0,0,1.668-1.066,8.844,8.844,0,0,1,7.387-6.1,4.31,4.31,0,0,1,.587-.074c.422-.011.843,0,1.383,0,0,1.24.02,2.473-.007,3.705a1.755,1.755,0,0,0,.872,1.811A1.568,1.568,0,0,0,14.922,21c3.6-2.884,7.206-5.744,10.806-8.621a1.734,1.734,0,0,0,.036-3.031Q20.332,4.937,14.889.537A1.5,1.5,0,0,0,13.095.186a1.739,1.739,0,0,0-.84,1.74C12.28,2.951,12.261,3.977,12.261,5.073ZM15.336,16.7c-.09-.148-.116-.172-.116-.2-.01-.667-.012-1.333-.027-2-.025-1.159-.43-1.67-1.5-1.775a13.221,13.221,0,0,0-9.781,2.637c-.115.089-.241.16-.429.282A9.025,9.025,0,0,1,8.572,9.246a12.448,12.448,0,0,1,4.949-1.031c1.129-.028,1.642-.6,1.67-1.8.011-.472,0-.945,0-1.641l7.489,6.068C20.2,12.824,17.786,14.749,15.336,16.7Z" transform="translate(-0.001 -0.009)" fill="#fff"/>
    </g>
  </g>
</svg>
