<svg xmlns="http://www.w3.org/2000/svg" width="49.38" height="49.38" viewBox="0 0 49.38 49.38">
  <g id="Grupo_2314" data-name="Grupo 2314" transform="translate(-1226 -261)">
    <g id="Grupo_2315" data-name="Grupo 2315">
      <g id="Elipse_134" data-name="Elipse 134" transform="translate(1226 261)" fill="#009a34" stroke="#009a34" stroke-width="2" opacity="0.995">
        <circle cx="24.69" cy="24.69" r="24.69" stroke="none"/>
        <circle cx="24.69" cy="24.69" r="23.69" fill="none"/>
      </g>
      <g id="_x33_fBgAI.tif_1_" transform="translate(1238 273)">
        <g id="Y7GwP1_2_" transform="translate(1 1)">
          <g id="Grupo_707" data-name="Grupo 707" transform="translate(0 0)">
            <path id="Trazado_1155" data-name="Trazado 1155" d="M24.724,3.425V23.564a1.771,1.771,0,0,1-1.16,1.16H2.16A1.771,1.771,0,0,1,1,23.564V2.16A1.816,1.816,0,0,1,2.16,1H22.3ZM21.8,24.165c.011-.19.021-.369.021-.538v-11.6c0-.949-.285-1.223-1.223-1.223H5.1c-.991,0-1.255.264-1.255,1.244v11.6c0,.169.011.337.021.527C9.867,24.165,15.825,24.165,21.8,24.165Zm.548-.032c1.244.179,1.866.042,1.856-1.476-.042-5.462-.021-10.923-.021-16.385a6.775,6.775,0,0,0-.084-2.5C23.8,3.035,22.952,2.529,22.372,1.9a.956.956,0,0,0-1.1-.3v.548c0,1.234.011,2.457-.011,3.69a1.4,1.4,0,0,1-1.529,1.5c-2.6.011-5.2.011-7.8,0a1.427,1.427,0,0,1-1.571-1.571c-.011-1.213,0-2.425,0-3.638v-.59H2.8c-.991,0-1.265.264-1.265,1.276V22.942a2.818,2.818,0,0,0,.011.422.856.856,0,0,0,.728.8,7,7,0,0,0,1.054.011V12.092c0-1.318.506-1.824,1.8-1.824H20.464c1.445,0,1.9.453,1.9,1.877V23.479C22.351,23.69,22.351,23.9,22.351,24.133ZM10.911,1.559c0,1.487-.011,2.91,0,4.323.011.6.38.907,1.044.907H19.7c.717,0,1.033-.306,1.054-1.023.021-.759,0-1.508.011-2.267V1.548C17.448,1.559,14.211,1.559,10.911,1.559Z" transform="translate(-1 -1)" fill="#fff" stroke="#fff" stroke-miterlimit="10" stroke-width="2"/>
            <path id="Trazado_1156" data-name="Trazado 1156" d="M46.046,107.359H28.121c-.011-.19-.021-.358-.021-.527v-11.6c0-.97.274-1.234,1.255-1.234h15.5c.938,0,1.223.274,1.223,1.223v11.6C46.077,106.99,46.056,107.159,46.046,107.359ZM30.631,97.733H43.568v-.464H30.631C30.631,97.437,30.631,97.564,30.631,97.733ZM30.62,100.4H43.6c-.011-.179-.021-.327-.032-.464H30.62Zm.011,2.415H43.61c-.011-.179-.021-.327-.032-.464H30.641C30.631,102.509,30.631,102.646,30.631,102.815Z" transform="translate(-25.243 -84.194)" fill="#009a34"/>
            <path id="Trazado_1157" data-name="Trazado 1157" d="M26.8,28.7V16.707c0-1.434-.453-1.877-1.9-1.877H9.573c-1.3,0-1.8.506-1.8,1.824V28.738a7,7,0,0,1-1.054-.011.866.866,0,0,1-.728-.8,2.818,2.818,0,0,1-.011-.422V7.376c0-1,.274-1.276,1.286-1.276h7.56v.59c0,1.213-.011,2.425,0,3.638A1.432,1.432,0,0,0,16.395,11.9c2.6.011,5.2.011,7.8,0a1.4,1.4,0,0,0,1.529-1.5c.021-1.234.011-2.457.011-3.69V6.163a.95.95,0,0,1,1.1.3c.58.633,1.413,1.139,1.729,1.877a6.775,6.775,0,0,1,.084,2.5c0,5.462-.021,10.923.021,16.385C28.668,28.727,28.046,28.875,26.8,28.7Z" transform="translate(-5.45 -5.562)" fill="#009a34" stroke="#fff" stroke-miterlimit="10" stroke-width="1"/>
            <path id="Trazado_1158" data-name="Trazado 1158" d="M94.96,6.3h9.858V8.251c0,.759.011,1.508-.011,2.267-.021.717-.337,1.023-1.054,1.023H96c-.675,0-1.044-.306-1.044-.907C94.95,9.21,94.96,7.787,94.96,6.3Zm8.952.928h-1.054V10.57h1.054Z" transform="translate(-85.049 -5.741)" fill="#009a34"/>
            <path id="Trazado_1159" data-name="Trazado 1159" d="M52.1,125.464V125H65.037v.464Z" transform="translate(-46.712 -111.926)" fill="#fff" stroke="#fff" stroke-miterlimit="10" stroke-width="1"/>
            <path id="Trazado_1160" data-name="Trazado 1160" d="M52,150.764V150.3H64.948c.011.148.021.3.032.464Z" transform="translate(-46.623 -134.558)" fill="#fff" stroke="#fff" stroke-miterlimit="10" stroke-width="1"/>
            <path id="Trazado_1161" data-name="Trazado 1161" d="M52.1,173.664V173.2H65.037c.011.148.021.285.032.464Z" transform="translate(-46.712 -155.044)" fill="#fff" stroke="#fff" stroke-miterlimit="10" stroke-width="1"/>
            <path id="Trazado_1162" data-name="Trazado 1162" d="M170.954,15.1v3.342H169.9V15.1Z" transform="translate(-152.091 -13.613)" fill="#fff"/>
          </g>
        </g>
      </g>
    </g>
  </g>
</svg>
