<svg xmlns="http://www.w3.org/2000/svg" width="23.496" height="23.495" viewBox="0 0 23.496 23.495"><g transform="translate(-545.783 -664.005)"><path d="M562.579,684.748a.688.688,0,0,0,.688-.688v-1.836a.689.689,0,0,0-1.377,0v1.836a.688.688,0,0,0,.688.688Z" fill="#fff"/><path d="M552.483,681.536a.688.688,0,0,0-.688.688v1.836a.689.689,0,1,0,1.377,0v-1.836a.688.688,0,0,0-.688-.688Z" fill="#fff"/><path d="M557.531,676.946a2.065,2.065,0,1,0-2.065-2.065A2.064,2.064,0,0,0,557.531,676.946Zm0-2.754a.688.688,0,1,1-.688.688.688.688,0,0,1,.688-.688Z" fill="#fff"/><path d="M568.971,678.438l-5.244-3.467v-2.384a.688.688,0,0,0-.342-.595l-5.165-3.013V666.85h.688a.688.688,0,1,0,0-1.377h-.688v-.78a.688.688,0,0,0-1.377,0v.78h-.688a.688.688,0,0,0,0,1.377h.688v2.129l-5.166,3.013a.688.688,0,0,0-.342.595v2.383l-5.243,3.468a.689.689,0,0,0-.309.574v7.8a.688.688,0,0,0,.688.688h22.12a.688.688,0,0,0,.688-.688v-7.8A.69.69,0,0,0,568.971,678.438Zm-21.811.944,4.176-2.761v2.46l-1.96,1.176a.69.69,0,0,0-.334.59v5.278H547.16Zm3.258,1.855,1.965-1.176a.688.688,0,0,0,.334-.59v-6.489l4.819-2.811,4.819,2.811v6.488a.688.688,0,0,0,.334.59l1.96,1.176v4.889h-4.13v-3.442a2.983,2.983,0,0,0-5.966,0h0v3.442h-4.135Zm5.507,4.888v-3.442a1.606,1.606,0,0,1,3.212,0v3.442Zm11.978,0h-1.882v-5.278a.689.689,0,0,0-.334-.59l-1.96-1.176v-2.46l4.176,2.761Z" fill="#fff"/></g></svg>