<svg xmlns="http://www.w3.org/2000/svg" width="40" height="40" viewBox="0 0 40 40">
  <g id="Grupo_3249" data-name="Grupo 3249" transform="translate(-1557 -351)">
    <g id="Trazado_1628" data-name="Trazado 1628" transform="translate(1557 351)" fill="#3fb030" opacity="0.995">
      <path d="M 20 39 C 17.43457984924316 39 14.94641971588135 38.49777984619141 12.60464954376221 37.50730133056641 C 10.34226036071777 36.55038833618164 8.310219764709473 35.18027877807617 6.564970016479492 33.43503189086914 C 4.819719791412354 31.68977928161621 3.449609994888306 29.65773963928223 2.492700099945068 27.39534950256348 C 1.502220034599304 25.05357933044434 1 22.5654296875 1 20 C 1 17.43457984924316 1.502220034599304 14.94641971588135 2.492700099945068 12.60464954376221 C 3.449609994888306 10.34226036071777 4.819719791412354 8.310219764709473 6.564970016479492 6.564970016479492 C 8.310219764709473 4.819719791412354 10.34226036071777 3.449609994888306 12.60464954376221 2.492700099945068 C 14.94641971588135 1.502220034599304 17.43457984924316 1 20 1 C 22.5654296875 1 25.05357933044434 1.502220034599304 27.39534950256348 2.492700099945068 C 29.65773963928223 3.449609994888306 31.68977928161621 4.819719791412354 33.43503189086914 6.564970016479492 C 35.18027877807617 8.310219764709473 36.55038833618164 10.34226036071777 37.50730133056641 12.60464954376221 C 38.49777984619141 14.94641971588135 39 17.43457984924316 39 20 C 39 22.5654296875 38.49777984619141 25.05357933044434 37.50730133056641 27.39534950256348 C 36.55038833618164 29.65773963928223 35.18027877807617 31.68977928161621 33.43503189086914 33.43503189086914 C 31.68977928161621 35.18027877807617 29.65773963928223 36.55038833618164 27.39534950256348 37.50730133056641 C 25.05357933044434 38.49777984619141 22.5654296875 39 20 39 Z" stroke="none"/>
      <path d="M 20 2 C 15.19202041625977 2 10.67182922363281 3.872329711914062 7.272079467773438 7.272079467773438 C 3.872329711914062 10.67182922363281 2 15.19202041625977 2 20 C 2 24.80797958374023 3.872329711914062 29.32817077636719 7.272079467773438 32.72792053222656 C 10.67182922363281 36.12767028808594 15.19202041625977 38 20 38 C 24.80797958374023 38 29.32817077636719 36.12767028808594 32.72792053222656 32.72792053222656 C 36.12767028808594 29.32817077636719 38 24.80797958374023 38 20 C 38 15.19202041625977 36.12767028808594 10.67182922363281 32.72792053222656 7.272079467773438 C 29.32817077636719 3.872329711914062 24.80797958374023 2 20 2 M 20 0 C 31.04570007324219 0 40 8.954299926757812 40 20 C 40 31.04570007324219 31.04570007324219 40 20 40 C 8.954299926757812 40 0 31.04570007324219 0 20 C 0 8.954299926757812 8.954299926757812 0 20 0 Z" stroke="none" fill="#3fb030"/>
    </g>
    <g id="vhxz67_2_" transform="translate(1563.809 357.834)">
      <g id="Grupo_708" data-name="Grupo 708" transform="translate(0.191 0.165)">
        <path id="Trazado_1164" data-name="Trazado 1164" d="M64.241,16.475l-.012-.012a1.419,1.419,0,0,1-1.236,1.02c-4.238,0-8.475-.012-12.725.012-.54,0-.684-.156-.672-.684.024-2.905.024-5.8,0-8.7,0-.552.156-.708.708-.708q6.3.036,12.6,0c.564,0,.708.192.708.72-.024,2.641-.012,5.282-.012,7.923v.648C63.88,16.608,64.061,16.548,64.241,16.475Zm-5.39-6.807a1.761,1.761,0,0,0-.492-.216c-.42-.036-.84-.012-1.26-.012H53.34c.084.3.144.516.216.744,1.369,0,2.689-.024,4.01.012a1.475,1.475,0,0,0,1.3-.552v.54h1.573c.276,0,.576.072.576-.384-.012-.42-.3-.372-.54-.348C59.919,9.5,59.391,9.585,58.851,9.669Zm-5.39,5.5c.132-.264.084-.432-.24-.444-.2-.012-.4.012-.6,0-.312-.024-.492.132-.384.42a.57.57,0,0,0,.492.276,3.189,3.189,0,0,0,.78-.276c.144.108.288.3.42.3,1.561-.048,3.133-.12,4.694-.18a1.817,1.817,0,0,1,.36.024c.492.06.972.132,1.465.18.252.024.54.06.552-.348.012-.456-.312-.384-.576-.384h-5.09C54.673,14.723,53.989,14.6,53.46,15.167Zm3.145-2.341c1.3,0,2.593.012,3.9-.012a.581.581,0,0,0,.468-.336c.1-.372-.192-.4-.48-.4-2.593,0-5.2,0-7.791.012a.607.607,0,0,0-.468.336c-.108.372.192.4.48.4s.586,0,1.193-.005C54.6,12.819,55.6,12.826,56.606,12.826Z" transform="translate(-43.807 -6.656)" fill="#3fb030"/>
        <path id="Trazado_1165" data-name="Trazado 1165" d="M21.82,11.02c-.18.06-.36.12-.636.216v-.648c0-2.641-.012-5.282.012-7.923,0-.528-.132-.72-.708-.72q-6.3.036-12.6,0c-.552,0-.72.156-.708.708.024,2.905.024,5.8,0,8.7,0,.516.144.684.672.684,4.238-.024,8.475-.012,12.725-.012a1.4,1.4,0,0,0,1.236-1.02c.96-.576,1.621-.06,2.257.624.456.5.948.972,1.441,1.441a4.733,4.733,0,0,1,1.489,3.6c-.012,1.417,0,2.845,0,4.262a1.889,1.889,0,0,1-2.053,2.041H22.66a14.159,14.159,0,0,0,2,4.046H3.633c.684-.936,1.309-1.777,1.921-2.6.192-.312.4-.252.6-.012-.156.528-.312,1.068-.48,1.609h17c-.312-.984-.6-1.933-.9-2.869l-.012.024a4.746,4.746,0,0,0,.828-.636,1.37,1.37,0,0,1,1.188-.54,10.013,10.013,0,0,0,1.2,0,.943.943,0,0,0,1.032-1c.012-1.621.048-3.241-.012-4.862A3.227,3.227,0,0,0,25.013,14q-.936-.972-1.909-1.909a1.737,1.737,0,0,0-.6-.372c-.384-.108-.7-.024-.648.48.048.456-.156.576-.588.576-4.706-.012-9.4-.012-14.105,0-.408,0-.624-.072-.624-.552,0-.5-.276-.66-.744-.468a1.8,1.8,0,0,0-.528.384c-.6.588-1.188,1.188-1.789,1.777A3.6,3.6,0,0,0,2.4,16.554v4.082c0,1.044,2.713,1.864,3.757,1.948l-.5.624-.245.332c-.192.624-2.221-.431-2.822-.695a1.769,1.769,0,0,1-1.176-1.657c-.024-1.7-.048-3.4.012-5.1A4.151,4.151,0,0,1,2.672,13.3c.66-.672,1.3-1.369,2-1.981A2.591,2.591,0,0,1,6,10.732c.528-.06.564-.3.564-.708V2.04c0-.828,0-.828.8-.828,4.6,0,9.844.024,14.442,0C22.258,1.315,21.82,10.228,21.82,11.02Z" transform="translate(-1.386 -1.2)" fill="#fff" stroke="#fff" stroke-miterlimit="10" stroke-width="1"/>
        <path id="Trazado_1166" data-name="Trazado 1166" d="M31.836,160.786c-.2-.24-.408-.3-.6.012-.06-.1-.192-.216-.168-.3.1-.336.228-.66.36-1.032-.264-.06-.456-.108-.636-.156-.06-.288-.132-.576-.192-.864.012-.012.048-.06.072-.06,1.152-.06,1.152-.06,1.224-1.26.048-.912.048-.912.984-.912,4.742,0,9.472.012,14.213-.012.564,0,.72.228.792.7.072.492.18.972.216,1.465a1.038,1.038,0,0,1-.18.456c-.144.252-.312.492-.468.732l.012-.024A11.626,11.626,0,0,1,47,157.845c-.084-.528-.3-.66-.816-.66-4.2.024-8.391.012-12.593.012-.216,0-.432.024-.588.024-.276,1.068-.528,2.077-.8,3.061A1.682,1.682,0,0,1,31.836,160.786Z" transform="translate(-27.093 -137.593)" fill="#fff"/>
        <path id="Trazado_1171" data-name="Trazado 1171" d="M75.744,47.122h-3.9c-.288,0-.576-.012-.48-.4a.607.607,0,0,1,.468-.336c2.593-.024,5.2-.012,7.791-.012.288,0,.576.024.48.4a.635.635,0,0,1-.468.336C78.349,47.134,77.04,47.122,75.744,47.122Z" transform="translate(-62.945 -41.952)" fill="#fff"/>
        <path id="Trazado_1176" data-name="Trazado 1176" d="M37.38,168.089a1.68,1.68,0,0,0,.348-.492c.276-1,.528-1.993.8-3.061.156-.012.372-.024.588-.024,4.2,0,8.391.012,12.593-.012.516,0,.732.132.816.66A14.637,14.637,0,0,0,53,166.841c.3.948.588,1.885.9,2.869h-17C37.068,169.158,37.224,168.63,37.38,168.089Z" transform="translate(-32.637 -144.896)" fill="#3fb030" stroke="#fff" stroke-width="1"/>
      </g>
    </g>
    <path id="Trazado_1787" data-name="Trazado 1787" d="M75.744,47.122h-3.9c-.288,0-.576-.012-.48-.4a.607.607,0,0,1,.468-.336c2.593-.024,5.2-.012,7.791-.012.288,0,.576.024.48.4a.635.635,0,0,1-.468.336C78.349,47.134,77.04,47.122,75.744,47.122Z" transform="translate(1501.055 317.048)" fill="#fff"/>
    <path id="Trazado_1788" data-name="Trazado 1788" d="M75.744,47.122h-3.9c-.288,0-.576-.012-.48-.4a.607.607,0,0,1,.468-.336c2.593-.024,5.2-.012,7.791-.012.288,0,.576.024.48.4a.635.635,0,0,1-.468.336C78.349,47.134,77.04,47.122,75.744,47.122Z" transform="translate(1501.055 318.048)" fill="#fff"/>
  </g>
</svg>
