<svg xmlns="http://www.w3.org/2000/svg" width="22.885" height="23.605" viewBox="0 0 22.885 23.605"><g transform="translate(-468.658 -663.945)"><path d="M478.542,672.983h-.781a.781.781,0,0,1-1.561,0h-.781a1.561,1.561,0,1,0,3.123,0Z" fill="#fff" stroke="#fff" stroke-miterlimit="10" stroke-width="0.25"/><path d="M474.638,670.641h.781v.781h-.781Z" fill="#fff" stroke="#fff" stroke-miterlimit="10" stroke-width="0.25"/><path d="M478.541,670.641h.781v.781h-.781Z" fill="#fff" stroke="#fff" stroke-miterlimit="10" stroke-width="0.25"/><path d="M491.032,674.934h-6.249a1.955,1.955,0,0,0-1.952,1.952v1.78a4.5,4.5,0,0,0-.672-.273l-3.232-1.013v-1.358a4.294,4.294,0,0,0,2.342-3.82v-.39a1.171,1.171,0,0,0,0-2.342h0V668.3a4.294,4.294,0,0,0-8.587,0v1.171a1.171,1.171,0,0,0,0,2.342v.39a4.294,4.294,0,0,0,2.342,3.82v1.358l-3.226,1.01a4.273,4.273,0,0,0-3.015,4.1v4.548a.39.39,0,0,0,.39.39h15.61a.389.389,0,0,0,.39-.39v-1.171h5.855a.389.389,0,0,0,.39-.39V675.325A.39.39,0,0,0,491.032,674.934Zm-6.249.781h5.855v7.026H484.4a1.556,1.556,0,0,0-.781.217v-6.072A1.172,1.172,0,0,1,484.783,675.715Zm-6.249,10.071-.74-3.7.633-.633a.389.389,0,0,0,0-.551h0l-.244-.244.749-.123v6.11H478.3l.219-.657a.377.377,0,0,0,.012-.2Zm-3.1.2.219.659h-.63v-6.11l.749.125-.244.245a.391.391,0,0,0,0,.552h0l.633.633-.74,3.7a.388.388,0,0,0,.012.2Zm1.313-4.415-.39-.39.39-.39h.457l.39.39-.39.39Zm2.3-3.334.216,1.451-1.584.264,1.039-1.818Zm2.61-7.6a.389.389,0,0,1-.39.39h0v-.777a.39.39,0,0,1,.392.388v0Zm-4.679-5.851a3.517,3.517,0,0,1,3.51,3.513v1.406a2.183,2.183,0,0,1-1.191-1.141.39.39,0,0,0-.37-.267,1.666,1.666,0,0,0-1.268.629,3.132,3.132,0,0,1-.7-1.143.39.39,0,0,0-.465-.255,8.6,8.6,0,0,0-3.031,1.836V668.3A3.517,3.517,0,0,1,476.983,664.786Zm-4.687,5.855a.391.391,0,0,1,.39-.39h0v.781a.39.39,0,0,1-.39-.39Zm1.171,1.564v-1.789a10.51,10.51,0,0,1,2.9-2.028,3.018,3.018,0,0,0,1.216,1.431.394.394,0,0,0,.523-.173,1.191,1.191,0,0,1,.594-.528,3.156,3.156,0,0,0,1.79,1.418v1.669a3.513,3.513,0,1,1-7.026,0Zm3.516,4.291a4.257,4.257,0,0,0,1.171-.167v1.234l-1.171,2.049-1.171-2.049v-1.234A4.257,4.257,0,0,0,476.983,676.5Zm-1.747,1.637,1.039,1.818-1.584-.264.216-1.451Zm-5.672,4.354a3.5,3.5,0,0,1,2.467-3.351l2.052-.641-.217,1.456a.39.39,0,0,0,.322.442l.064.011v6.24H472.3V681.96h-.781v4.684h-1.951Zm6.919,4.157-.269-.806.7-3.488h.141l.7,3.488-.269.806Zm7.916,0h-1.954V681.96h-.781v4.684h-1.952v-6.239l.064-.011a.39.39,0,0,0,.322-.442l-.215-1.457,2.047.641a3.476,3.476,0,0,1,.906.447V684.3a1.561,1.561,0,0,0,1.561,1.561h0Zm0-1.561a.781.781,0,0,1-.056-1.561h6.3v.39H484.4v.781h6.245v.39Z" fill="#fff" stroke="#fff" stroke-miterlimit="10" stroke-width="0.25"/><path d="M486.739,681.176h.781v-2.339h.781v-.781h-.781v-.78h-.781v.781h-.781v.781h.781Z" fill="#fff" stroke="#fff" stroke-miterlimit="10" stroke-width="0.25"/></g></svg>