<svg xmlns="http://www.w3.org/2000/svg" viewBox="0 0 102 102">
  <defs>
    <style>
      .cls-1 {
        fill: #d9d9d9;
      }

      .cls-2 {
        fill: #f1f2f3;
        stroke: #707070;
        stroke-width: 0.25px;
      }

      .cls-3, .cls-4 {
        stroke: none;
      }

      .cls-4 {
        fill: #707070;
      }
    </style>
  </defs>
  <g id="Group_1005" data-name="Group 1005" transform="translate(-965 -433)">
    <g id="Path_1092" data-name="Path 1092" class="cls-1" transform="translate(965 433)">
      <path class="cls-3" d="M 97 101.875 L 5 101.875 C 2.311912536621094 101.875 0.125 99.68808746337891 0.125 97 L 0.125 0.125 L 101.875 0.125 L 101.875 97 C 101.875 99.68808746337891 99.68808746337891 101.875 97 101.875 Z"/>
      <path class="cls-4" d="M 0.25 0.25 L 0.25 97 C 0.25 99.61916351318359 2.380836486816406 101.75 5 101.75 L 97 101.75 C 99.61916351318359 101.75 101.75 99.61916351318359 101.75 97 L 101.75 0.25 L 0.25 0.25 M 0 0 L 102 0 L 102 97 C 102 99.76141357421875 99.76141357421875 102 97 102 L 5 102 C 2.238571166992188 102 0 99.76141357421875 0 97 L 0 0 Z"/>
    </g>
    <path id="Path_1091" data-name="Path 1091" class="cls-2" d="M16.19,59.128l-13.9,7.567A25.741,25.741,0,0,0,0,68.279a46.394,46.394,0,0,0,30.092,10.91A46.734,46.734,0,0,0,60.008,68.455a7.381,7.381,0,0,0-2.464-1.584L42.586,59.48a5.672,5.672,0,0,1-3.168-5.1V48.569c.352-.528.88-1.056,1.408-1.76A30.7,30.7,0,0,0,45.4,37.483a4.54,4.54,0,0,0,3.344-4.4V26.924a4.43,4.43,0,0,0-1.584-3.52V14.078S49.1,0,29.916,0,12.67,14.078,12.67,14.078v8.975a5.061,5.061,0,0,0-1.584,3.52v6.159A4.592,4.592,0,0,0,13.2,36.6a30.164,30.164,0,0,0,5.631,11.614v5.631A5.216,5.216,0,0,1,16.19,59.128Z" transform="translate(986 444)"/>
  </g>
</svg>
