<svg xmlns="http://www.w3.org/2000/svg" viewBox="0 0 33.19 33.191">
  <defs>
    <style>
      .cls-1 {
        fill: #009fdf;
      }

      .cls-2 {
        fill: #fff;
        stroke: #fff;
      }
    </style>
  </defs>
  <g id="Salir" transform="translate(-1575.269 -640)">
    <path id="Path_641" data-name="Path 641" class="cls-1" d="M16.6,0A16.6,16.6,0,1,1,0,16.6,16.6,16.6,0,0,1,16.6,0Z" transform="translate(1575.269 640)"/>
    <path id="Path_264" data-name="Path 264" class="cls-2" d="M11.058,11.058a.6.6,0,0,1-.438.184.584.584,0,0,1-.438-.184L5.627,6.5,1.072,11.058a.633.633,0,0,1-.888,0A.6.6,0,0,1,0,10.62a.584.584,0,0,1,.184-.438L4.739,5.627.184,1.072a.633.633,0,0,1,0-.888A.6.6,0,0,1,.623,0a.584.584,0,0,1,.438.184L5.615,4.739,10.17.184a.633.633,0,0,1,.888,0,.584.584,0,0,1,.184.438.584.584,0,0,1-.184.438L6.5,5.627l4.555,4.555A.619.619,0,0,1,11.058,11.058Z" transform="translate(1597.969 651.464) rotate(92)"/>
  </g>
</svg>
