<svg xmlns="http://www.w3.org/2000/svg" width="24.438" height="22.86" viewBox="0 0 24.438 22.86">
  <g id="Grupo_3775" data-name="Grupo 3775" transform="translate(-932.698 -516.861)">
    <path id="Trazado_1829" data-name="Trazado 1829" d="M933.493,524.89a.723.723,0,0,0,.64.372h5.033a.722.722,0,0,0,.639-.372l.714-1.351a.635.635,0,0,0,.039-.517l-.464-1.314a24.6,24.6,0,0,1,9.642,0l-.468,1.318a.641.641,0,0,0,.039.516l.719,1.348a.723.723,0,0,0,.64.372H955.7a.721.721,0,0,0,.639-.372l.719-1.348a.637.637,0,0,0,.011-.584c-2.209-4.508-6.659-6.053-11.954-6.1-5.405-.045-10.076,1.458-12.349,6.1a.637.637,0,0,0,.011.584Zm11.607-6.682c5.3.045,8.741,1.69,10.518,5.025l-.363.681h-4.148l-.387-.726.624-1.756a.67.67,0,0,0-.423-.847.769.769,0,0,0-.083-.022,26.1,26.1,0,0,0-11.846,0,.714.714,0,0,0-.46.331.639.639,0,0,0-.052.538l.625,1.756-.388.726h-4.142l-.363-.681c1.822-3.426,5.387-5.072,10.889-5.025Z" fill="#009fdf"/>
    <path id="Trazado_1830" data-name="Trazado 1830" d="M947.787,526.047v-2.3a.717.717,0,1,0-1.432-.057.555.555,0,0,0,0,.057v2.04a11.972,11.972,0,0,0-2.881,0v-2.04a.717.717,0,1,0-1.432-.057.555.555,0,0,0,0,.057v2.3A12.707,12.707,0,0,0,932.7,536.2v2.93a.725.725,0,0,0,.716.732h23a.725.725,0,0,0,.716-.732V536.2C957.132,534.447,954.743,527.741,947.787,526.047ZM955.7,538.4H934.13v-2.116c2.686-12.16,18.885-12.16,21.571,0Z" transform="translate(0 -0.14)" fill="#009fdf"/>
    <g id="Elipse_233" data-name="Elipse 233" transform="translate(941.698 529.861)" fill="none" stroke="#009fdf" stroke-width="1">
      <circle cx="3.5" cy="3.5" r="3.5" stroke="none"/>
      <circle cx="3.5" cy="3.5" r="3" fill="none"/>
    </g>
  </g>
</svg>
