<svg xmlns="http://www.w3.org/2000/svg" width="30" height="30" viewBox="0 0 30 30">
  <g id="Grupo_3139" data-name="Grupo 3139" transform="translate(-873 -533)">
    <g id="Grupo_3147" data-name="Grupo 3147">
      <circle id="Elipse_90" data-name="Elipse 90" cx="15" cy="15" r="15" transform="translate(873 533)" fill="#009fdf" opacity="0.995"/>
      <path id="Trazado_1783" data-name="Trazado 1783" d="M9.864.05A9.859,9.859,0,0,0,.8,6.028l-.123.041.048.143a9.859,9.859,0,0,0,18.117,7.774,9.634,9.634,0,0,0,.88-4.075A9.859,9.859,0,0,0,9.864.05ZM17.6,14.879l-.506-.506V13.195a.328.328,0,0,0-.033-.147l-1.282-2.56V9.251a.329.329,0,0,0-.146-.273l-.986-.657a.329.329,0,0,0-.263-.045l-1.207.3-2.028-.87-.279-1.955.773-.773H13.3l.559.84a.329.329,0,0,0,.22.142l1.972.329a.326.326,0,0,0,.158-.012l1.816-.605A9.169,9.169,0,0,1,17.6,14.879ZM16.242,3.288l-.534.356-1.49-.3-.966-.322a.323.323,0,0,0-.183-.007l-1.222.305-.536-.178.4-.794h1.111a.329.329,0,0,0,.147-.035L14.1,1.747A9.235,9.235,0,0,1,16.242,3.288ZM6.262,1.441l.789.526a.328.328,0,0,0,.128.051l1.593.266-.155.465-.83.277a.329.329,0,0,0-.178.142L6.665,4.74l-1.516.91-2.235.319a.329.329,0,0,0-.283.325V7.28a.329.329,0,0,0,.1.232l.561.561v.565L1.922,7.726l-.5-1.488A9.254,9.254,0,0,1,6.262,1.441ZM5.326,12.216l-1.485-.3-.552-1.1v-.772L4.513,8.82l.453.907a.329.329,0,0,0,.294.182H7.375l.89,1.484a.329.329,0,0,0,.282.159H9.46L9.23,12.7,7.986,13.948a.329.329,0,0,0-.1.232V15l-1.183.887a.329.329,0,0,0-.131.263v1.187L6.166,17.2l-.577-1.443V12.538A.329.329,0,0,0,5.326,12.216Zm-.988,5.052A9.2,9.2,0,0,1,1.061,7.222l.273.819a.328.328,0,0,0,.129.17L3.1,9.3l-.374.374a.329.329,0,0,0-.1.232v.986a.328.328,0,0,0,.035.147l.657,1.314a.329.329,0,0,0,.23.175l1.38.276v3.017a.329.329,0,0,0,.023.122l.657,1.643a.329.329,0,0,0,.2.19l.986.329a.323.323,0,0,0,.1.017.329.329,0,0,0,.329-.329V16.317l1.183-.887a.329.329,0,0,0,.131-.263v-.85L9.765,13.1a.329.329,0,0,0,.09-.168l.329-1.643a.329.329,0,0,0-.322-.393H8.733l-.89-1.484a.329.329,0,0,0-.282-.159h-2.1L4.9,8.119a.329.329,0,0,0-.242-.177.322.322,0,0,0-.285.092l-.427.425V7.937a.329.329,0,0,0-.1-.232l-.561-.561V6.579l2.018-.288a.33.33,0,0,0,.123-.044l1.643-.986a.328.328,0,0,0,.112-.112L8.109,3.61l.871-.291a.325.325,0,0,0,.208-.208l.329-.986A.329.329,0,0,0,9.258,1.7l-1.9-.317-.334-.223a9.176,9.176,0,0,1,6.32.235l-.6.3H11.5a.329.329,0,0,0-.3.182l-.657,1.314a.329.329,0,0,0,.19.458l.986.329a.323.323,0,0,0,.183.007l1.222-.305.9.3a.242.242,0,0,0,.039.011l1.643.329a.326.326,0,0,0,.247-.049l.748-.5a9.271,9.271,0,0,1,.988,1.321l-1.617.539-1.751-.292-.578-.868a.329.329,0,0,0-.272-.146H11.5a.329.329,0,0,0-.232.1l-.986.986a.329.329,0,0,0-.093.279l.329,2.3a.329.329,0,0,0,.2.255l2.3.986a.325.325,0,0,0,.209.017L14.4,8.948l.717.479v1.139a.328.328,0,0,0,.033.147l1.282,2.56v1.237a.329.329,0,0,0,.1.232l.687.688A9.2,9.2,0,0,1,4.338,17.267Z" transform="translate(878 537.95)" fill="#fff" stroke="#fff" stroke-width="0.5"/>
    </g>
  </g>
</svg>
