<svg xmlns="http://www.w3.org/2000/svg" width="47.058" height="47.048" viewBox="0 0 47.058 47.048">
  <g id="worldwide" transform="translate(0 -0.05)">
    <path id="Trazado_1783" data-name="Trazado 1783" d="M23.537.05A23.524,23.524,0,0,0,1.909,14.315l-.293.1.114.341A23.525,23.525,0,0,0,44.958,33.3a22.987,22.987,0,0,0,2.1-9.725A23.524,23.524,0,0,0,23.537.05ZM41.989,35.434l-1.208-1.207V31.415a.783.783,0,0,0-.078-.351l-3.058-6.108V22.006a.784.784,0,0,0-.349-.652l-2.352-1.568a.784.784,0,0,0-.627-.108l-2.881.72L26.6,18.32l-.666-4.664,1.845-1.844h3.961l1.333,2a.784.784,0,0,0,.524.338l4.7.784a.778.778,0,0,0,.376-.03l4.333-1.444A21.877,21.877,0,0,1,41.989,35.434ZM38.755,7.777l-1.275.85-3.554-.711-2.306-.768a.77.77,0,0,0-.438-.017l-2.915.728-1.278-.426.947-1.894h2.652a.784.784,0,0,0,.351-.082L33.651,4.1A22.036,22.036,0,0,1,38.755,7.777ZM14.942,3.369l1.882,1.255a.783.783,0,0,0,.307.121l3.8.634-.371,1.11-1.98.661a.784.784,0,0,0-.424.34L15.9,11.241l-3.617,2.17-5.332.761a.784.784,0,0,0-.674.776V17.3a.784.784,0,0,0,.23.554l1.339,1.339v1.347L4.586,18.366,3.4,14.816A22.082,22.082,0,0,1,14.942,3.369ZM12.709,29.078l-3.544-.71L7.848,25.741V23.9l2.922-2.922,1.081,2.163a.784.784,0,0,0,.7.434H17.6l2.124,3.54a.784.784,0,0,0,.672.38h2.18l-.549,2.75-2.969,2.969a.784.784,0,0,0-.231.554v1.96L16,37.845a.784.784,0,0,0-.314.627V41.3l-.975-.323-1.377-3.444V29.847A.784.784,0,0,0,12.709,29.078ZM10.352,41.133a21.95,21.95,0,0,1-7.82-23.97l.652,1.954a.784.784,0,0,0,.308.4L7.4,22.127l-.892.892a.784.784,0,0,0-.23.554v2.352a.784.784,0,0,0,.082.351L7.93,29.413a.784.784,0,0,0,.549.418l3.293.658v7.2a.784.784,0,0,0,.056.291L13.4,41.9a.784.784,0,0,0,.481.452l2.352.784a.771.771,0,0,0,.244.041.784.784,0,0,0,.784-.784V38.864l2.823-2.117a.784.784,0,0,0,.314-.627V34.092L23.3,31.185a.785.785,0,0,0,.214-.4l.784-3.921a.784.784,0,0,0-.768-.938H20.837l-2.124-3.54a.784.784,0,0,0-.672-.38h-5L11.69,19.3a.784.784,0,0,0-.576-.423.768.768,0,0,0-.68.22L9.416,20.113V18.869a.784.784,0,0,0-.23-.554L7.848,16.976V15.628l4.816-.688a.788.788,0,0,0,.292-.1l3.921-2.352a.784.784,0,0,0,.268-.268l2.2-3.672,2.077-.693a.776.776,0,0,0,.5-.5L22.705,5a.784.784,0,0,0-.615-1.019l-4.539-.757-.8-.532a21.9,21.9,0,0,1,15.08.561L30.4,3.971H27.451a.784.784,0,0,0-.706.434L25.177,7.541a.784.784,0,0,0,.454,1.094l2.352.784a.77.77,0,0,0,.438.017l2.915-.728,2.136.711a.577.577,0,0,0,.094.025l3.921.784a.779.779,0,0,0,.589-.116l1.785-1.19a22.122,22.122,0,0,1,2.359,3.151l-3.858,1.286-4.177-.7-1.38-2.07a.784.784,0,0,0-.648-.349h-4.7a.784.784,0,0,0-.554.23l-2.352,2.352a.784.784,0,0,0-.222.666l.784,5.489a.784.784,0,0,0,.47.609l5.489,2.352a.775.775,0,0,0,.5.04l2.8-.7,1.712,1.143v2.717a.783.783,0,0,0,.078.351L39.213,31.6v2.951a.784.784,0,0,0,.23.554l1.64,1.641A21.95,21.95,0,0,1,10.352,41.133Z" transform="translate(0 0)" fill="#fff"/>
  </g>
</svg>
